<svg width="92" height="92" viewBox="0 0 92 92" fill="none" xmlns="http://www.w3.org/2000/svg">
<rect width="92" height="92" rx="24" fill="white"/>
<path d="M37.7339 42.125C38.8379 42.125 39.7339 41.229 39.7339 40.125V32.325C39.7339 28.838 42.5709 26 46.0579 26C49.5449 26 52.3829 28.838 52.3829 32.325V40.125C52.3829 41.229 53.2779 42.125 54.3829 42.125C55.4869 42.125 56.3829 41.229 56.3829 40.125V32.325C56.3839 26.632 51.7519 22 46.0579 22C40.3659 22 35.7339 26.632 35.7339 32.325V40.125C35.7339 41.229 36.6299 42.125 37.7339 42.125Z" fill="url(#paint0_linear)"/>
<path d="M69 37.631H58.384V40.125C58.384 42.331 56.59 44.125 54.384 44.125C52.178 44.125 50.384 42.331 50.384 40.125V37.631H41.735V40.125C41.735 42.331 39.941 44.125 37.735 44.125C35.529 44.125 33.735 42.331 33.735 40.125V37.631H23C22.448 37.631 22.107 38.066 22.238 38.602L29.236 67.099C29.658 68.701 31.344 70 33 70H59C60.658 70 62.342 68.701 62.766 67.099L69.762 38.602C69.893 38.065 69.553 37.631 69 37.631Z" fill="url(#paint1_linear)"/>
<defs>
<linearGradient id="paint0_linear" x1="46.0584" y1="22" x2="46.0584" y2="42.125" gradientUnits="userSpaceOnUse">
<stop stop-color="#EF8080"/>
<stop offset="1" stop-color="#F0145A"/>
</linearGradient>
<linearGradient id="paint1_linear" x1="46" y1="37.631" x2="46" y2="70" gradientUnits="userSpaceOnUse">
<stop stop-color="#EF8080"/>
<stop offset="1" stop-color="#F0145A"/>
</linearGradient>
</defs>
</svg>
